<?xml version="1.0" encoding="UTF-8"?>
<svg version="1.1" xmlns="http://www.w3.org/2000/svg" width="70" height="57">
<path d="M0 0 C1.03318359 -0.020625 2.06636719 -0.04125 3.13085938 -0.0625 C8.73429968 -0.09125402 12.88022603 0.01900999 17.6875 3.25 C18.3475 3.91 19.0075 4.57 19.6875 5.25 C20.6775 5.91 21.6675 6.57 22.6875 7.25 C25.00991304 9.37887862 26.83712123 11.70572919 28.6875 14.25 C29.18894531 14.84554688 29.69039062 15.44109375 30.20703125 16.0546875 C34.10621909 21.83659665 34.62989984 31.42037289 33.6875 38.25 C32.37902897 43.03391219 30.91023527 47.80452946 28.6875 52.25 C26.625 52.875 26.625 52.875 24.6875 53.25 C24.6875 51.93 24.6875 50.61 24.6875 49.25 C25.3475 48.92 26.0075 48.59 26.6875 48.25 C26.6875 47.26 26.6875 46.27 26.6875 45.25 C27.3475 45.25 28.0075 45.25 28.6875 45.25 C28.85611758 42.68761495 29.02245773 40.12511576 29.1875 37.5625 C29.23519531 36.84126953 29.28289062 36.12003906 29.33203125 35.37695312 C29.56953519 31.66171286 29.74624637 27.97305126 29.6875 24.25 C29.0275 23.92 28.3675 23.59 27.6875 23.25 C27.02083333 21.58333333 26.35416667 19.91666667 25.6875 18.25 C23.4079429 14.45073817 21.42113179 11.6587947 17.6875 9.25 C16.6975 8.59 15.7075 7.93 14.6875 7.25 C12.36641331 6.54187186 10.03372853 5.86975848 7.6875 5.25 C7.6875 4.59 7.6875 3.93 7.6875 3.25 C2.4075 3.25 -2.8725 3.25 -8.3125 3.25 C-8.6425 3.91 -8.9725 4.57 -9.3125 5.25 C-11.97006064 6.99839516 -14.28632445 8.24127482 -17.3125 9.25 C-19.00012851 10.8954378 -20.6665349 12.56288577 -22.3125 14.25 C-23.3025 14.91 -24.2925 15.57 -25.3125 16.25 C-25.14500244 16.78463867 -24.97750488 17.31927734 -24.80493164 17.87011719 C-24.20367215 20.77595632 -24.30278615 23.36315272 -24.43359375 26.328125 C-24.48193359 27.48828125 -24.53027344 28.6484375 -24.58007812 29.84375 C-24.63615234 31.0503125 -24.69222656 32.256875 -24.75 33.5 C-24.80220703 34.72203125 -24.85441406 35.9440625 -24.90820312 37.203125 C-25.03779214 40.21901481 -25.17275576 43.23456646 -25.3125 46.25 C-25.9725 46.25 -26.6325 46.25 -27.3125 46.25 C-27.3125 46.91 -27.3125 47.57 -27.3125 48.25 C-26.6525 48.58 -25.9925 48.91 -25.3125 49.25 C-24.59090576 50.89363134 -23.91898579 52.56050386 -23.3125 54.25 C-26.17974686 53.67655063 -27.1739515 53.3885485 -29.3125 51.25 C-34.85490091 40.32702009 -34.54148104 29.03164208 -31.26171875 17.45703125 C-29.73450714 13.90610713 -27.09971372 12.03054611 -24.125 9.6875 C-23.196875 8.883125 -22.26875 8.07875 -21.3125 7.25 C-21.3125 6.59 -21.3125 5.93 -21.3125 5.25 C-13.79636178 0.85376821 -8.69642831 0.04291883 0 0 Z " fill="#5AC6C8" transform="translate(35.3125,-0.25)"/>
<path d="M0 0 C7.59 0 15.18 0 23 0 C22.67 1.98 22.34 3.96 22 6 C19.69 6 17.38 6 15 6 C15 13.26 15 20.52 15 28 C12.69 28 10.38 28 8 28 C8 20.74 8 13.48 8 6 C5.69 6 3.38 6 1 6 C0.67 4.02 0.34 2.04 0 0 Z " fill="#5D1DD8" transform="translate(12,19)"/>
<path d="M0 0 C2.64 0 5.28 0 8 0 C8 6.93 8 13.86 8 21 C11.63 21 15.26 21 19 21 C18.67 22.98 18.34 24.96 18 27 C12.39 27 6.78 27 1 27 C0.67 18.09 0.34 9.18 0 0 Z " fill="#631FE5" transform="translate(36,19)"/>
<path d="M0 0 C2 2 2 2 2.13525391 4.61376953 C2.08288574 5.69255371 2.03051758 6.77133789 1.9765625 7.8828125 C1.925 9.04941406 1.8734375 10.21601563 1.8203125 11.41796875 C1.75585938 12.64128906 1.69140625 13.86460938 1.625 15.125 C1.56828125 16.35605469 1.5115625 17.58710937 1.453125 18.85546875 C1.31132317 21.90420806 1.15988027 24.95216388 1 28 C0.34 28 -0.32 28 -1 28 C-1 28.66 -1 29.32 -1 30 C-0.34 30.33 0.32 30.66 1 31 C1.72159424 32.64363134 2.39351421 34.31050386 3 36 C0.13275314 35.42655063 -0.8614515 35.1385485 -3 33 C-7.51017335 24.1113372 -8.63662437 14.34563903 -6.140625 4.66796875 C-5 2 -5 2 -2.375 0.625 C-1.59125 0.41875 -0.8075 0.2125 0 0 Z " fill="#6018E9" transform="translate(9,18)"/>
<path d="M0 0 C0 0.33 0 0.66 0 1 C2.64 1.33 5.28 1.66 8 2 C8 2.33 8 2.66 8 3 C4.04 3 0.08 3 -4 3 C-4.33 3.66 -4.66 4.32 -5 5 C-7.65756064 6.74839516 -9.97382445 7.99127482 -13 9 C-14.70993434 10.6222454 -16.37347684 12.29413425 -18 14 C-18.7425 14.721875 -19.485 15.44375 -20.25 16.1875 C-22.07107096 17.89252684 -22.07107096 17.89252684 -23 20 C-24.32 19.67 -25.64 19.34 -27 19 C-25.36770931 14.5694967 -23.5212985 12.38885485 -19.875 9.5 C-18.92625 8.675 -17.9775 7.85 -17 7 C-17 6.34 -17 5.68 -17 5 C-10.94571676 1.45881547 -7.19510272 -0.13575666 0 0 Z " fill="#50ACAE" transform="translate(31,0)"/>
<path d="M0 0 C0.66 0.33 1.32 0.66 2 1 C4.98176497 10.54164791 2.34839632 20.30320736 -2 29 C-4.0625 29.625 -4.0625 29.625 -6 30 C-6 28.68 -6 27.36 -6 26 C-5.34 25.67 -4.68 25.34 -4 25 C-4 24.01 -4 23.02 -4 22 C-3.34 22 -2.68 22 -2 22 C-1.83138242 19.43761495 -1.66504227 16.87511576 -1.5 14.3125 C-1.42845703 13.2306543 -1.42845703 13.2306543 -1.35546875 12.12695312 C-1.16143471 9.09170635 -0.99910011 6.08515246 -1.03125 3.04296875 C-1 1 -1 1 0 0 Z " fill="#80C5DE" transform="translate(66,23)"/>
<path d="M0 0 C0.66 0 1.32 0 2 0 C2 7.26 2 14.52 2 22 C3.65 22 5.3 22 7 22 C6.34 22.33 5.68 22.66 5 23 C5 23.66 5 24.32 5 25 C5.66 25.33 6.32 25.66 7 26 C7.72159424 27.64363134 8.39351421 29.31050386 9 31 C6.13275314 30.42655063 5.1385485 30.1385485 3 28 C-1.1255685 19.86931756 -1.72212594 11.99697898 -1 3 C-0.67 2.01 -0.34 1.02 0 0 Z " fill="#7C93EA" transform="translate(3,23)"/>
<path d="M0 0 C0.99 0 1.98 0 3 0 C3.268125 0.5775 3.53625 1.155 3.8125 1.75 C4.93639072 4.03995273 4.93639072 4.03995273 6.5625 6 C8.0545769 8.07593308 8.74607805 9.46078045 9 12 C8.34 12.66 7.68 13.32 7 14 C6.01 13.67 5.02 13.34 4 13 C2.9375 10.625 2.9375 10.625 2 8 C1.34 7.01 0.68 6.02 0 5 C-0.125 2.3125 -0.125 2.3125 0 0 Z " fill="#43989C" transform="translate(59,10)"/>
<path d="M0 0 C-0.41667064 4.86115742 -2.50156131 6.76394421 -6 10 C-6.33 10.66 -6.66 11.32 -7 12 C-8.32 11.67 -9.64 11.34 -11 11 C-9.28707604 6.35063498 -5.63111253 0 0 0 Z " fill="#65D2D4" transform="translate(15,8)"/>
<path d="M0 0 C0.66 0 1.32 0 2 0 C1.40049704 3.68266103 0.75241109 7.34543185 0 11 C-1.65 11.33 -3.3 11.66 -5 12 C-5 10.68 -5 9.36 -5 8 C-4.34 7.67 -3.68 7.34 -3 7 C-3 6.01 -3 5.02 -3 4 C-2.34 4 -1.68 4 -1 4 C-0.67 2.68 -0.34 1.36 0 0 Z " fill="#BEBDD7" transform="translate(65,41)"/>
<path d="M0 0 C2.12493141 -0.02693575 4.24995912 -0.04636628 6.375 -0.0625 C7.55835938 -0.07410156 8.74171875 -0.08570313 9.9609375 -0.09765625 C13 -0 13 -0 15 1 C15 1.66 15 2.32 15 3 C9.72 2.67 4.44 2.34 -1 2 C-0.67 1.34 -0.34 0.68 0 0 Z " fill="#63E0E3" transform="translate(31,0)"/>
<path d="M0 0 C1.98 0.66 3.96 1.32 6 2 C5.34 3.65 4.68 5.3 4 7 C1.69 6.34 -0.62 5.68 -3 5 C-3 4.34 -3 3.68 -3 3 C-2.01 3 -1.02 3 0 3 C0 2.01 0 1.02 0 0 Z " fill="#3B8E90" transform="translate(46,0)"/>
<path d="M0 0 C0.144375 0.61875 0.28875 1.2375 0.4375 1.875 C0.93152225 4.03258322 0.93152225 4.03258322 2 6 C1.01 6.33 0.02 6.66 -1 7 C-1.99 7.66 -2.98 8.32 -4 9 C-4.33 7.02 -4.66 5.04 -5 3 C-3.35 2.01 -1.7 1.02 0 0 Z " fill="#3B8485" transform="translate(19,2)"/>
<path d="M0 0 C2.375 0.625 2.375 0.625 5 2 C6.3125 5.125 6.3125 5.125 7 8 C4.13275314 7.42655063 3.1385485 7.1385485 1 5 C0.375 2.375 0.375 2.375 0 0 Z " fill="#C4C1D3" transform="translate(5,46)"/>
<path d="M0 0 C0.99 0 1.98 0 3 0 C4.4606285 2.64738916 5 3.89448334 5 7 C3.35 6.67 1.7 6.34 0 6 C0 4.02 0 2.04 0 0 Z " fill="#48A3A4" transform="translate(59,10)"/>
<path d="M0 0 C0.33 0 0.66 0 1 0 C2.125 5.75 2.125 5.75 1 8 C-0.32 7.67 -1.64 7.34 -3 7 C-1.125 2.25 -1.125 2.25 0 0 Z " fill="#438F93" transform="translate(7,12)"/>
<path d="" fill="#000000" transform="translate(0,0)"/>
<path d="" fill="#000000" transform="translate(0,0)"/>
<path d="" fill="#000000" transform="translate(0,0)"/>
<path d="" fill="#000000" transform="translate(0,0)"/>
<path d="" fill="#000000" transform="translate(0,0)"/>
<path d="" fill="#000000" transform="translate(0,0)"/>
<path d="" fill="#000000" transform="translate(0,0)"/>
<path d="" fill="#000000" transform="translate(0,0)"/>
<path d="" fill="#000000" transform="translate(0,0)"/>
<path d="" fill="#000000" transform="translate(0,0)"/>
<path d="" fill="#000000" transform="translate(0,0)"/>
<path d="" fill="#000000" transform="translate(0,0)"/>
<path d="" fill="#000000" transform="translate(0,0)"/>
<path d="" fill="#000000" transform="translate(0,0)"/>
<path d="" fill="#000000" transform="translate(0,0)"/>
<path d="" fill="#000000" transform="translate(0,0)"/>
<path d="" fill="#000000" transform="translate(0,0)"/>
<path d="" fill="#000000" transform="translate(0,0)"/>
<path d="" fill="#000000" transform="translate(0,0)"/>
<path d="" fill="#000000" transform="translate(0,0)"/>
<path d="" fill="#000000" transform="translate(0,0)"/>
<path d="" fill="#000000" transform="translate(0,0)"/>
<path d="" fill="#000000" transform="translate(0,0)"/>
<path d="" fill="#000000" transform="translate(0,0)"/>
<path d="" fill="#000000" transform="translate(0,0)"/>
<path d="" fill="#000000" transform="translate(0,0)"/>
<path d="" fill="#000000" transform="translate(0,0)"/>
<path d="" fill="#000000" transform="translate(0,0)"/>
<path d="" fill="#000000" transform="translate(0,0)"/>
<path d="" fill="#000000" transform="translate(0,0)"/>
<path d="" fill="#000000" transform="translate(0,0)"/>
<path d="" fill="#000000" transform="translate(0,0)"/>
<path d="" fill="#000000" transform="translate(0,0)"/>
<path d="" fill="#000000" transform="translate(0,0)"/>
<path d="" fill="#000000" transform="translate(0,0)"/>
<path d="" fill="#000000" transform="translate(0,0)"/>
<path d="" fill="#000000" transform="translate(0,0)"/>
<path d="" fill="#000000" transform="translate(0,0)"/>
<path d="" fill="#000000" transform="translate(0,0)"/>
<path d="" fill="#000000" transform="translate(0,0)"/>
<path d="" fill="#000000" transform="translate(0,0)"/>
<path d="" fill="#000000" transform="translate(0,0)"/>
</svg>
