<svg width="22" height="22" viewBox="0 0 22 22" fill="none" xmlns="http://www.w3.org/2000/svg">
<path d="M11.0007 5.95834C11.6084 5.95834 12.1913 6.19979 12.6211 6.62956C13.0509 7.05933 13.2923 7.64222 13.2923 8.25001C13.2923 8.55096 13.233 8.84896 13.1179 9.12699C13.0027 9.40503 12.8339 9.65766 12.6211 9.87046C12.4083 10.0833 12.1557 10.2521 11.8776 10.3672C11.5996 10.4824 11.3016 10.5417 11.0007 10.5417C10.3929 10.5417 9.80997 10.3002 9.3802 9.87046C8.95043 9.44069 8.70898 8.8578 8.70898 8.25001C8.70898 7.64222 8.95043 7.05933 9.3802 6.62956C9.80997 6.19979 10.3929 5.95834 11.0007 5.95834ZM11.0007 1.83334C12.7025 1.83334 14.3346 2.50938 15.5379 3.71274C16.7413 4.9161 17.4173 6.5482 17.4173 8.25001C17.4173 13.0625 11.0007 20.1667 11.0007 20.1667C11.0007 20.1667 4.58398 13.0625 4.58398 8.25001C4.58398 6.5482 5.26002 4.9161 6.46338 3.71274C7.66674 2.50938 9.29884 1.83334 11.0007 1.83334ZM11.0007 3.66668C9.78508 3.66668 8.61929 4.14956 7.75974 5.0091C6.9002 5.86865 6.41732 7.03443 6.41732 8.25001C6.41732 9.16668 6.41732 11 11.0007 17.1508C15.584 11 15.584 9.16668 15.584 8.25001C15.584 7.03443 15.1011 5.86865 14.2416 5.0091C13.382 4.14956 12.2162 3.66668 11.0007 3.66668Z" fill="#818181"/>
</svg>
