<svg width="60" height="60" viewBox="0 0 60 60" fill="none" xmlns="http://www.w3.org/2000/svg">
<path fill-rule="evenodd" clip-rule="evenodd" d="M28.2618 19.5625C28.2618 19.2864 28.038 19.0625 27.7618 19.0625C27.4857 19.0625 27.2618 19.2864 27.2618 19.5625V31.2939C27.2579 31.481 27.3597 31.6626 27.5382 31.7519L37.973 36.9693C38.22 37.0928 38.5203 36.9927 38.6438 36.7457C38.7673 36.4987 38.6672 36.1984 38.4202 36.0749L29.3434 31.5364C28.6805 31.205 28.2618 30.5275 28.2618 29.7865V19.5625Z" fill="#1D2018"/>
<path fill-rule="evenodd" clip-rule="evenodd" d="M9 29.3499C9 17.7399 18.4118 8.32812 30.0217 8.32812C41.6317 8.32812 51.0435 17.7399 51.0435 29.3499C51.0435 31.5714 50.6991 33.7115 50.0611 35.7203C49.9775 35.9834 50.1231 36.2646 50.3863 36.3481C50.6494 36.4317 50.9306 36.2861 51.0142 36.023C51.6829 33.9175 52.0435 31.6753 52.0435 29.3499C52.0435 17.1876 42.184 7.32812 30.0217 7.32812C17.8595 7.32812 8 17.1876 8 29.3499C8 41.5121 17.8595 51.3716 30.0217 51.3716C31.8718 51.3716 35.2415 51.2122 38.6335 51.0518L38.7783 51.045C40.8987 50.9447 43.0199 50.8449 44.791 50.7827C45.3787 50.7621 45.682 51.4683 45.2662 51.884L43.3652 53.785C43.1699 53.9803 43.1699 54.2969 43.3652 54.4921C43.5605 54.6874 43.877 54.6874 44.0723 54.4921L47.9853 50.5791C48.1806 50.3838 48.1806 50.0673 47.9853 49.872L44.0723 45.9589C43.877 45.7637 43.5605 45.7637 43.3652 45.9589C43.1699 46.1542 43.1699 46.4708 43.3652 46.6661L45.3533 48.6542C45.7594 49.0602 45.4809 49.7585 44.907 49.7781C43.0917 49.8403 40.9024 49.9434 38.7311 50.0461L38.6181 50.0514C35.2025 50.2129 31.8478 50.3716 30.0217 50.3716C18.4118 50.3716 9 40.9599 9 29.3499Z" fill="#1D2018"/>
</svg>
