<svg width="61" height="60" viewBox="0 0 61 60" fill="none" xmlns="http://www.w3.org/2000/svg">
<path fill-rule="evenodd" clip-rule="evenodd" d="M7.81622 16.2576C0.489645 23.5842 0.489645 35.4629 7.81622 42.7895C13.8472 48.8205 22.9629 49.887 30.0848 45.9889C30.7633 45.6175 31.5908 45.6232 32.2636 46.0048C34.9918 47.5523 38.146 48.4359 41.5065 48.4359C51.8679 48.4359 60.2674 40.0364 60.2674 29.6751C60.2674 19.3137 51.8679 10.9142 41.5065 10.9142C38.2452 10.9142 35.1783 11.7463 32.5065 13.2099C31.8281 13.5815 31.0004 13.5749 30.3274 13.1934C23.171 9.13648 13.916 10.1579 7.81622 16.2576ZM28.3064 16.3437C29.2917 15.368 29.223 13.6717 27.9437 13.1366C21.4932 10.4384 13.7736 11.7144 8.52333 16.9647C1.58728 23.9008 1.58728 35.1463 8.52333 42.0824C13.7076 47.2667 21.2994 48.576 27.6998 46.0105C28.987 45.4945 29.0808 43.7992 28.11 42.8091C24.7918 39.4249 22.7457 34.7889 22.7457 29.6751C22.7457 24.461 24.8727 19.7438 28.3064 16.3437ZM32.2885 43.3045C31.6481 43.8266 30.7324 43.82 30.0993 43.2889C26.2151 40.0309 23.7457 35.1414 23.7457 29.6751C23.7457 24.1143 26.3012 19.1503 30.302 15.8937C30.9429 15.372 31.8586 15.3789 32.4914 15.9105C32.8861 16.242 33.2697 16.5934 33.641 16.9647C40.577 23.9008 40.577 35.1463 33.641 42.0824C33.2064 42.517 32.7549 42.9244 32.2885 43.3045ZM34.6455 46.0622C33.367 45.5263 33.2979 43.83 34.2828 42.8545C34.3046 42.8329 34.3264 42.8112 34.3481 42.7895C41.6747 35.4629 41.6747 23.5842 34.3481 16.2576C33.4307 15.3402 33.5181 13.7545 34.7168 13.2582C36.8085 12.3921 39.1017 11.9142 41.5065 11.9142C51.3156 11.9142 59.2674 19.866 59.2674 29.6751C59.2674 39.4841 51.3156 47.4359 41.5065 47.4359C39.0744 47.4359 36.7564 46.947 34.6455 46.0622Z" fill="#1D2018"/>
</svg>
