<svg width="18" height="20" viewBox="0 0 18 20" fill="none" xmlns="http://www.w3.org/2000/svg">
<g clip-path="url(#clip0_393_2188)">
<path d="M16.5001 14.69V16.94C16.5009 17.1489 16.4581 17.3556 16.3745 17.547C16.2908 17.7384 16.168 17.9102 16.0141 18.0514C15.8602 18.1926 15.6785 18.3001 15.4806 18.367C15.2828 18.434 15.0731 18.4588 14.8651 18.44C12.5572 18.1892 10.3403 17.4006 8.39257 16.1375C6.58044 14.986 5.04407 13.4496 3.89257 11.6375C2.62506 9.68092 1.83625 7.45326 1.59007 5.13501C1.57133 4.92761 1.59598 4.71858 1.66245 4.52123C1.72892 4.32388 1.83575 4.14253 1.97615 3.98873C2.11654 3.83493 2.28743 3.71204 2.47792 3.6279C2.6684 3.54376 2.87433 3.50021 3.08257 3.50001H5.33257C5.69655 3.49643 6.04942 3.62532 6.32539 3.86266C6.60137 4.1 6.78163 4.4296 6.83257 4.79001C6.92754 5.51006 7.10366 6.21706 7.35757 6.89751C7.45848 7.16595 7.48032 7.4577 7.4205 7.73817C7.36069 8.01865 7.22172 8.27609 7.02007 8.48001L6.06757 9.43251C7.13524 11.3102 8.68991 12.8648 10.5676 13.9325L11.5201 12.98C11.724 12.7784 11.9814 12.6394 12.2619 12.5796C12.5424 12.5198 12.8341 12.5416 13.1026 12.6425C13.783 12.8964 14.49 13.0725 15.2101 13.1675C15.5744 13.2189 15.9071 13.4024 16.145 13.6831C16.3828 13.9638 16.5092 14.3222 16.5001 14.69Z" stroke="#818181" stroke-width="1.5" stroke-linecap="round" stroke-linejoin="round"/>
</g>
<defs>
<clipPath id="clip0_393_2188">
<rect width="18" height="18" fill="white" transform="translate(0 2)"/>
</clipPath>
</defs>
</svg>
