<svg width="60" height="60" viewBox="0 0 60 60" fill="none" xmlns="http://www.w3.org/2000/svg">
<path d="M11.1353 44.9542C10.8605 44.927 10.6156 45.1277 10.5884 45.4025C10.5611 45.6772 10.7618 45.9221 11.0366 45.9494L11.1353 44.9542ZM55.8088 10.1068C55.6262 9.89972 55.3102 9.87985 55.1031 10.0624L51.7276 13.0384C51.5205 13.221 51.5006 13.537 51.6833 13.7441C51.8659 13.9512 52.1818 13.9711 52.389 13.7885L55.3894 11.1432L58.0347 14.1436C58.2173 14.3508 58.5332 14.3706 58.7404 14.188C58.9475 14.0054 58.9674 13.6894 58.7848 13.4823L55.8088 10.1068ZM11.0366 45.9494C18.0895 46.6489 28.7913 45.7232 37.9975 40.6525C47.235 35.5643 54.936 26.3155 55.9328 10.4689L54.9348 10.4061C53.9605 25.8943 46.4683 34.845 37.515 39.7765C28.5303 44.7254 18.0437 45.6395 11.1353 44.9542L11.0366 45.9494Z" fill="#1D2018"/>
<path fill-rule="evenodd" clip-rule="evenodd" d="M4.39114 51.3594C5.47172 51.3594 6.3477 52.2353 6.3477 53.3158V54.7795C6.3477 55.0556 6.57156 55.2795 6.8477 55.2795C7.12385 55.2795 7.3477 55.0556 7.3477 54.7795V53.3158C7.3477 52.2353 8.22368 51.3594 9.30425 51.3594H57.543C57.8192 51.3594 58.043 51.1355 58.043 50.8594C58.043 50.5832 57.8192 50.3594 57.543 50.3594H9.30425C8.22368 50.3594 7.3477 49.4834 7.3477 48.4028V10.9687C7.3477 10.6926 7.12385 10.4688 6.8477 10.4688C6.57156 10.4688 6.3477 10.6926 6.3477 10.9687V48.4028C6.3477 49.4834 5.47172 50.3594 4.39114 50.3594H2.45605C2.17991 50.3594 1.95605 50.5832 1.95605 50.8594C1.95605 51.1355 2.17991 51.3594 2.45605 51.3594H4.39114Z" fill="#1D2018"/>
</svg>
