<svg width="60" height="60" viewBox="0 0 60 60" fill="none" xmlns="http://www.w3.org/2000/svg">
<path d="M30.2846 30.2412C36.3358 30.2412 41.2412 25.3358 41.2412 19.2846C41.2412 13.2335 36.3358 8.32812 30.2846 8.32812C24.2335 8.32812 19.3281 13.2335 19.3281 19.2846C19.3281 25.3358 24.2335 30.2412 30.2846 30.2412Z" stroke="#1D2018" stroke-width="1.30437" stroke-linecap="round"/>
<path fill-rule="evenodd" clip-rule="evenodd" d="M12 19.2826C12 9.1854 20.1854 1 30.2826 1C40.3798 1 48.5652 9.1854 48.5652 19.2826C48.5652 29.3798 40.3798 37.5652 30.2826 37.5652C20.1854 37.5652 12 29.3798 12 19.2826ZM30.2826 0C19.6331 0 11 8.63312 11 19.2826C11 25.6033 14.0412 31.2137 18.7401 34.7304C18.8032 34.7776 18.8281 34.8587 18.8281 34.9375V53.7185C18.8281 54.0926 19.2241 54.3342 19.5568 54.1631L29.3883 49.1065C29.9499 48.8176 30.6163 48.8176 31.1779 49.1064L41.0125 54.1631C41.3453 54.3342 41.7412 54.0926 41.7412 53.7185V34.9375C41.7412 34.8572 41.7663 34.7744 41.8306 34.7263C46.5264 31.2094 49.5652 25.6009 49.5652 19.2826C49.5652 8.63312 40.9321 0 30.2826 0ZM40.7412 39.081C40.7412 37.5305 38.9934 36.5603 37.5577 37.1456C35.3128 38.0609 32.8566 38.5652 30.2826 38.5652C27.71 38.5652 25.255 38.0614 23.011 37.1471C21.5754 36.5621 19.8281 37.5323 19.8281 39.0825V49.6926C19.8281 51.1568 21.3775 52.1022 22.6796 51.4325L30.0544 47.6394C30.1979 47.5656 30.3682 47.5656 30.5117 47.6394L37.8899 51.4331C39.192 52.1026 40.7412 51.1572 40.7412 49.6931V39.081Z" fill="#1D2018"/>
</svg>
