<svg width="21" height="21" viewBox="0 0 21 21" fill="none" xmlns="http://www.w3.org/2000/svg">
<path d="M10.084 2.00815C10.1223 1.93068 10.1816 1.86547 10.255 1.81988C10.3285 1.77428 10.4132 1.75012 10.4996 1.75012C10.5861 1.75012 10.6708 1.77428 10.7442 1.81988C10.8177 1.86547 10.8769 1.93068 10.9152 2.00815L12.9365 6.10228C13.0697 6.37175 13.2662 6.60489 13.5093 6.78167C13.7524 6.95846 14.0347 7.07363 14.3321 7.11728L18.8524 7.77878C18.938 7.79119 19.0185 7.82732 19.0847 7.88308C19.1509 7.93884 19.2001 8.01201 19.2269 8.09431C19.2537 8.17661 19.2569 8.26476 19.2361 8.34878C19.2154 8.43281 19.1716 8.50936 19.1096 8.56978L15.8406 11.753C15.625 11.9631 15.4637 12.2224 15.3706 12.5087C15.2775 12.795 15.2553 13.0996 15.306 13.3963L16.0777 17.8938C16.0929 17.9794 16.0836 18.0675 16.0511 18.1481C16.0185 18.2287 15.9639 18.2986 15.8936 18.3496C15.8233 18.4007 15.74 18.431 15.6533 18.4371C15.5665 18.4431 15.4799 18.4246 15.4031 18.3838L11.3624 16.2593C11.0961 16.1195 10.7999 16.0464 10.4992 16.0464C10.1985 16.0464 9.90224 16.1195 9.636 16.2593L5.59612 18.3838C5.51941 18.4244 5.43284 18.4427 5.34627 18.4365C5.25969 18.4303 5.17658 18.4 5.10638 18.349C5.03618 18.2979 4.98173 18.2282 4.9492 18.1477C4.91667 18.0673 4.90737 17.9793 4.92237 17.8938L5.69325 13.3972C5.74417 13.1003 5.72211 12.7955 5.62897 12.5091C5.53583 12.2226 5.3744 11.9632 5.15862 11.753L1.88962 8.57065C1.82714 8.51031 1.78287 8.43362 1.76184 8.34934C1.74081 8.26506 1.74388 8.17657 1.77069 8.09394C1.7975 8.01132 1.84698 7.93789 1.91349 7.88201C1.98 7.82614 2.06086 7.79006 2.14687 7.7779L6.66625 7.11728C6.96397 7.07396 7.24671 6.95895 7.49013 6.78214C7.73355 6.60533 7.93036 6.37202 8.06362 6.10228L10.084 2.00815Z" stroke="#1D2018" stroke-width="2" stroke-linecap="round" stroke-linejoin="round"/>
</svg>
