<svg width="60" height="60" viewBox="0 0 60 60" fill="none" xmlns="http://www.w3.org/2000/svg">
<path fill-rule="evenodd" clip-rule="evenodd" d="M40.8666 12.1657C40.7246 11.7758 40.3942 11.4957 39.8908 11.5001C36.8399 11.5264 34.9822 13.1346 33.8775 15.2379C32.7585 17.3685 32.429 19.9909 32.4999 21.9041C32.5013 21.9432 32.5012 21.9825 32.4995 22.0216C32.4941 22.146 32.4425 22.2686 32.3452 22.3615L12.9366 40.8879C11.7183 42.0508 11.6958 43.9884 12.8867 45.1793L13.9509 46.2435C15.1149 47.4075 16.9993 47.4161 18.1739 46.263L37.0148 27.7661C37.1051 27.6774 37.1912 27.5699 37.2779 27.4617C37.5135 27.1674 37.7529 26.8683 38.0913 26.9309C42.1364 27.68 44.6128 26.9033 46.1038 25.5414C47.6114 24.1644 48.2233 22.0895 48.3164 20.0192C48.3414 19.462 48.0443 19.1177 47.6528 18.9835C47.2444 18.8434 46.703 18.9269 46.2775 19.3524L44.6955 20.9344C43.7553 21.8746 42.2437 21.9144 41.2553 21.0249L39.0968 19.0822C38.098 18.1833 37.9884 16.6557 38.8486 15.6235L40.5992 13.5228C40.9541 13.0969 41.0141 12.5703 40.8666 12.1657ZM31.5191 20.4602C31.4689 21.306 31.1462 22.1236 30.5333 22.7086L29.4656 23.7277C28.3073 24.8334 26.4848 24.8344 25.3252 23.7301L17.8955 16.6541C17.8143 16.5768 17.7615 16.4745 17.7455 16.3636L17.3828 13.8562C17.3121 13.3674 17.0053 12.9447 16.5624 12.726L12.7977 10.8669C12.2243 10.5837 11.5345 10.6952 11.0795 11.1446L9.66767 12.539C9.2039 12.997 9.08903 13.7022 9.38344 14.2837L11.3048 18.079C11.4842 18.4333 11.7968 18.702 12.174 18.8262L14.4833 19.5865C14.5566 19.6106 14.6234 19.6514 14.6783 19.7057L21.8185 26.7577C23.022 27.9463 23.0054 29.8943 21.7818 31.0623L9.65476 42.6381C9.45501 42.8288 9.44765 43.1453 9.63832 43.345C9.64263 43.3495 9.647 43.3539 9.65143 43.3582L15.6465 49.3533C15.6812 49.388 15.7198 49.4166 15.7608 49.439C15.9358 49.5344 16.1648 49.5343 16.3397 49.4387C16.3792 49.417 16.4165 49.3897 16.4503 49.3565L26.6206 39.3719C27.7633 38.2501 29.5856 38.2234 30.7605 39.3113L42.1603 49.8666C42.194 49.8978 42.2309 49.9235 42.2699 49.9437C42.4725 50.0491 42.7281 50.0044 42.8818 49.8228L48.3818 43.3228C48.5578 43.1148 48.5345 42.805 48.3315 42.6254L37.1911 32.3419C36.2348 31.4592 36.2117 29.9559 37.1403 29.0442C37.8266 28.3705 38.7934 28.0853 39.7517 28.1667C42.9855 28.4415 45.254 27.6719 46.7782 26.2797C48.5604 24.6519 49.2162 22.2696 49.3153 20.0641C49.3612 19.0446 48.7703 18.3095 47.9771 18.0376C47.2009 17.7714 46.2609 17.9548 45.5704 18.6453L43.9884 20.2273C43.4243 20.7914 42.5173 20.8153 41.9243 20.2816L39.7657 18.3389C39.1665 17.7995 39.1007 16.883 39.6169 16.2636L41.3674 14.163C41.9508 13.4629 42.0753 12.5618 41.8062 11.8233C41.5317 11.0701 40.8445 10.4918 39.8822 10.5001C36.3896 10.5303 34.2312 12.4138 32.9922 14.7729C32.0445 16.5772 31.6254 18.6681 31.5191 20.4602ZM36.8178 33.3582C35.6425 32.2733 33.8227 32.3013 32.6813 33.4219L31.6214 34.4624C30.3991 35.6624 30.428 37.6406 31.6849 38.8044L40.9215 47.3567C41.7577 48.131 43.0709 48.0511 43.8071 47.1811L46.0717 44.5047C46.7635 43.6871 46.6885 42.4697 45.9015 41.7432L36.8178 33.3582ZM23.827 27.3359C24.3358 27.8384 25.1519 27.8454 25.6692 27.3516C26.2153 26.8303 26.2148 25.9583 25.6681 25.4376L17.2058 17.3782C16.9624 17.1464 16.8039 16.8395 16.7558 16.5068L16.3931 13.9994C16.3695 13.8364 16.2672 13.6955 16.1196 13.6226L12.3549 11.7635C12.1638 11.6691 11.9338 11.7063 11.7822 11.8561L10.3704 13.2505C10.2158 13.4032 10.1775 13.6382 10.2756 13.832L12.197 17.6273C12.2568 17.7454 12.361 17.835 12.4867 17.8764L14.796 18.6367C15.016 18.7091 15.2162 18.8315 15.381 18.9942L23.827 27.3359Z" fill="#1D2018"/>
</svg>
